:SAMPLES-PER-SECOND 30
:FULLY-SPECIFIED
:DEGREES
1070
root  -19.6995 14.0075 34.0042 -121.377 66.3926 -115.198
Spine  3.98422 0.400353 17.0976
Spine1  2.39722 -0.139249 6.35211
Neck  3.97569e-016 0 -2.38542e-015
Head  15.7649 1.08395 28.621
R_Clavicle  0.186403 -26.8907 7.41112
R_UpperArm  28.6832 -49.5039 81.2671
R_Forearm  -34.3973 -3.70664 -0.805786
R_Hand  -21.4539 48.6715 -60.3709
L_Clavicle  -0.417789 20.302 4.07731
L_UpperArm  -42.9751 68.8546 75.9791
L_Forearm  63.1441 1.47698 1.96945
L_Hand  24.0931 -51.628 -50.8465
L_Thigh  3.4514 48.8155 58.6367
L_Calf  -12.3038 -6.72007 50.4153
L_Foot  1.96449 2.32293 6.13202
L_Toe0  0.505156 0.034446 -6.1361
R_Thigh  6.9384 -53.0588 8.01572
R_Calf  14.0078 7.87485 25.0175
R_Foot  -3.4094 -10.9157 -1.60596
R_Toe0  -1.78853 -0.272788 -17.3235
1071
root  -19.1009 13.8179 34.0971 -140.359 59.4148 -124.029
Spine  3.77066 -4.31548 20.4519
Spine1  2.44654 -6.19436 8.53743
Neck  3.97569e-016 0 -2.38542e-015
Head  12.0268 4.92696 29.281
R_Clavicle  0.407754 -22.5473 7.05003
R_UpperArm  27.9378 -53.5022 76.0763
R_Forearm  -38.7189 -3.12754 -1.86663
R_Hand  -21.151 49.3327 -59.2601
L_Clavicle  -0.472819 22.3137 2.84641
L_UpperArm  -30.1898 60.3571 75.617
L_Forearm  54.1454 2.6889 5.26461
L_Hand  24.6568 -55.8932 -47.2148
L_Thigh  2.13006 42.4036 62.0777
L_Calf  -5.35019 -6.17101 47.1471
L_Foot  1.00505 0.0959629 4.80009
L_Toe0  0.505156 0.034446 -6.1361
R_Thigh  18.6877 -53.0802 1.31907
R_Calf  15.8362 6.46348 20.1743
R_Foot  -31.1233 -46.5862 29.0622
R_Toe0  -1.78853 -0.272788 -17.3235
1072
root  -18.0499 13.389 33.3882 -163.403 53.3889 -137.415
Spine  3.34695 -7.45774 20.588
Spine1  1.91273 -14.6425 9.63062
Neck  3.97569e-016 0 -2.38542e-015
Head  7.35187 7.45603 29.2093
R_Clavicle  0.488867 -20.5779 6.478
R_UpperArm  27.2715 -55.7263 71.1111
R_Forearm  -37.8532 -4.4045 -2.25971
R_Hand  -26.9409 52.9041 -66.7289
L_Clavicle  -0.635341 26.2033 1.29963
L_UpperArm  -12.1588 41.8499 72.8004
L_Forearm  34.0257 6.35643 8.32866
L_Hand  35.0224 -63.6906 -55.9352
L_Thigh  4.88763 35.5895 66.3353
L_Calf  -7.14887 -5.49076 43.2383
L_Foot  1.49646 0.915925 5.96257
L_Toe0  0.505156 0.034446 -6.1361
R_Thigh  34.2442 -54.1083 -2.11978
R_Calf  32.7104 6.25275 19.4476
R_Foot  -60.6243 -46.4918 70.1739
R_Toe0  -1.78853 -0.272788 -17.3235
1073
root  -17.0178 13.002 31.7357 176.367 45.084 -148.474
Spine  2.6602 -9.39278 20.4943
Spine1  1.022 -21.4714 9.9249
Neck  3.97569e-016 0 -2.38542e-015
Head  3.63338 7.72477 30.6037
R_Clavicle  0.499787 -20.1235 6.09472
R_UpperArm  28.5157 -55.957 65.0796
R_Forearm  -34.893 -6.31446 -2.08538
R_Hand  -43.9784 59.2285 -86.5342
L_Clavicle  -0.853923 29.8363 0.150746
L_UpperArm  -10.6538 27.5759 66.7739
L_Forearm  16.0422 13.3771 5.3813
L_Hand  40.4777 -65.8556 -61.2732
L_Thigh  10.3308 29.3175 71.1216
L_Calf  -9.03186 -5.08885 39.335
L_Foot  1.74736 -0.0112297 8.52703
L_Toe0  0.505156 0.034446 -6.1361
R_Thigh  38.6452 -53.1281 -1.4939
R_Calf  29.9191 4.9641 15.2228
R_Foot  -44.9456 -39.0484 56.5283
R_Toe0  -1.78853 -0.272788 -17.3235
1074
root  -16.5547 12.7995 29.1131 162.513 35.6627 -153.67
Spine  1.7544 -10.9116 21.4749
Spine1  0.297546 -23.8333 10.8407
Neck  3.97569e-016 0 -2.38542e-015
Head  0.765798 6.4066 33.4944
R_Clavicle  0.561112 -18.323 5.97935
R_UpperArm  32.5321 -57.243 59.0379
R_Forearm  -33.0637 -5.77559 -1.85416
R_Hand  -66.6737 60.6492 -112.758
L_Clavicle  -0.994266 31.2716 -0.514712
L_UpperArm  -10.3189 18.8131 64.1185
L_Forearm  3.52133 10.6076 -2.82115
L_Hand  7.79602 -57.0883 -16.071
L_Thigh  12.0152 23.0606 74.375
L_Calf  -7.67933 -4.71573 35.9813
L_Foot  1.29408 -2.0251 9.55664
L_Toe0  0.505156 0.034446 -6.1361
R_Thigh  33.0936 -50.8743 0.296247
R_Calf  2.82478 2.58862 7.83429
R_Foot  -10.4929 -21.4296 13.3817
R_Toe0  -1.78853 -0.272788 -17.3235
1075
root  -16.7488 12.8594 26.2006 151.092 26.9393 -157.314
Spine  1.17926 -10.9983 21.6957
Spine1  -0.245531 -24.7468 11.758
Neck  3.97569e-016 0 -2.38542e-015
Head  -1.31843 5.37586 35.3234
R_Clavicle  0.65525 -15.3641 5.83411
R_UpperArm  38.2766 -59.6537 53.3216
R_Forearm  -30.3281 -4.50856 -0.900384
R_Hand  -81.0859 55.6186 -132.513
L_Clavicle  -1.02975 30.3916 -1.01289
L_UpperArm  -12.1373 14.7058 58.0873
L_Forearm  -6.3089 14.0967 0.890108
L_Hand  -0.368251 -19.821 5.67516
L_Thigh  9.79235 18.0595 76.9437
L_Calf  -6.04204 -4.62374 35.2939
L_Foot  1.19526 -2.25892 9.46564
L_Toe0  0.505156 0.034446 -6.1361
R_Thigh  34.2053 -48.1273 -2.68453
R_Calf  -15.0941 2.65673 8.12495
R_Foot  4.67599 14.2033 1.52389
R_Toe0  -1.78853 -0.272788 -17.3235
1076
root  -16.8774 13.2777 23.8095 139.773 17.8555 -159.432
Spine  1.34351 -10.0437 21.4895
Spine1  -0.649884 -28.2623 11.2503
Neck  3.97569e-016 0 -2.38542e-015
Head  -1.97965 5.27082 33.8183
R_Clavicle  0.69926 -13.3207 5.54968
R_UpperArm  45.1804 -60.5301 47.3789
R_Forearm  -24.7764 -4.51707 1.02007
R_Hand  -87.5564 48.074 -145.594
L_Clavicle  -1.01118 28.1582 -1.66304
L_UpperArm  -9.85178 8.62326 46.1412
L_Forearm  -40.3887 26.4775 20.9962
L_Hand  1.7154 8.60053 13.8084
L_Thigh  6.97773 16.3885 78.3364
L_Calf  -5.08618 -4.71906 36.1735
L_Foot  0.965429 -2.58781 8.83462
L_Toe0  0.505156 0.034446 -6.1361
R_Thigh  35.0611 -45.4009 -1.87997
R_Calf  -15.8967 2.08071 6.3181
R_Foot  3.28525 11.3513 4.78035
R_Toe0  -1.78853 -0.272788 -17.3235
1077
root  -17.4618 14.0575 21.2377 128.565 9.82663 -160.195
Spine  2.39609 -7.73561 22.0683
Spine1  -0.474759 -32.5074 10.733
Neck  3.97569e-016 0 -2.38542e-015
Head  -2.35587 5.01469 29.1432
R_Clavicle  0.728078 -11.6764 5.33422
R_UpperArm  51.2602 -60.9546 43.9128
R_Forearm  -15.3767 -3.25697 2.1279
R_Hand  -87.225 38.9801 -154.008
L_Clavicle  -1.00352 26.4226 -2.4361
L_UpperArm  -1.41221 7.20321 39.3817
L_Forearm  -55.7327 23.9228 32.0825
L_Hand  4.10098 15.0548 22.366
L_Thigh  5.23539 15.4966 78.2638
L_Calf  -3.81875 -4.37493 33.1264
L_Foot  0.788957 -2.92347 8.4804
L_Toe0  0.505156 0.034446 -6.1361
R_Thigh  35.104 -42.4965 -0.801532
R_Calf  -11.5494 1.37511 4.13893
R_Foot  0.369322 3.19881 6.50065
R_Toe0  -1.78853 -0.272788 -17.3235
1078
root  -18.3319 15.1908 18.8598 117.585 3.1402 -159.764
Spine  4.09793 -6.17246 23.2068
Spine1  0.744167 -35.0538 9.69728
Neck  3.97569e-016 0 -2.38542e-015
Head  -2.95941 4.77762 22.4415
R_Clavicle  0.787106 -8.90028 5.17767
R_UpperArm  58.1122 -62.4827 42.1274
R_Forearm  -6.02285 -0.284369 2.70689
R_Hand  -81.1168 31.9212 -156.725
L_Clavicle  -1.03996 26.1153 -2.99732
L_UpperArm  -9.34616 6.25346 41.8797
L_Forearm  -46.6974 17.6188 21.5077
L_Hand  2.16647 12.2346 14.2953
L_Thigh  4.71527 14.3463 76.6315
L_Calf  -3.74785 -3.62299 26.7689
L_Foot  0.565428 -2.68638 6.84386
L_Toe0  0.505156 0.034446 -6.1361
R_Thigh  32.308 -41.0427 -0.280718
R_Calf  -8.90914 0.430372 1.21533
R_Foot  -0.546885 0.937926 7.64372
R_Toe0  -1.78853 -0.272788 -17.3235
